PathFileType	4	(X/Y/Z)	C:\Users\Basilio\Documents\Thesis Gigler\squatting_fais\c3dfiles\038\SLS_front_pre3\markers_experimental.trc
DataRate	CameraRate	NumFrames	NumMarkers	Units	OrigDataRate	OrigDataStartFrame	OrigNumFrames
200.000000	200.000000	4	61	mm	200.000000	342	1368
Frame#	Time	FHD			LBHD			RBHD			C7			T10			CLAV			LSHO			LUUPA			LMUPA			LDUPA			LLEP			LMEP			LUL			LRFIN			RSHO			RUPA1			RMUPA			RDUPA			RLEP			RMEP			RRAD			RUL			RUFIN			LASI			RASI			USACR			LSACR			RSACR			LTHI1			LTHI2			LTHI3			LTHI4			LLFC			LMFC			LTIB1			LTIB2			LTIB3			LTIB4			LLMAL			LMMAL			LHEE			LMT1			LMT2			LMT5			RTHI			RTHI2			RTHI3			RTHI4			RLFC			RMFC			RTIB1			RTIB2			RTIB3			RTIB4			RLMAL			RMMAL			RHEE			RMT1			RMT2			RMT5			LRAD			
		X1	Y1	Z1	X2	Y2	Z2	X3	Y3	Z3	X4	Y4	Z4	X5	Y5	Z5	X6	Y6	Z6	X7	Y7	Z7	X8	Y8	Z8	X9	Y9	Z9	X10	Y10	Z10	X11	Y11	Z11	X12	Y12	Z12	X13	Y13	Z13	X14	Y14	Z14	X15	Y15	Z15	X16	Y16	Z16	X17	Y17	Z17	X18	Y18	Z18	X19	Y19	Z19	X20	Y20	Z20	X21	Y21	Z21	X22	Y22	Z22	X23	Y23	Z23	X24	Y24	Z24	X25	Y25	Z25	X26	Y26	Z26	X27	Y27	Z27	X28	Y28	Z28	X29	Y29	Z29	X30	Y30	Z30	X31	Y31	Z31	X32	Y32	Z32	X33	Y33	Z33	X34	Y34	Z34	X35	Y35	Z35	X36	Y36	Z36	X37	Y37	Z37	X38	Y38	Z38	X39	Y39	Z39	X40	Y40	Z40	X41	Y41	Z41	X42	Y42	Z42	X43	Y43	Z43	X44	Y44	Z44	X45	Y45	Z45	X46	Y46	Z46	X47	Y47	Z47	X48	Y48	Z48	X49	Y49	Z49	X50	Y50	Z50	X51	Y51	Z51	X52	Y52	Z52	X53	Y53	Z53	X54	Y54	Z54	X55	Y55	Z55	X56	Y56	Z56	X57	Y57	Z57	X58	Y58	Z58	X59	Y59	Z59	X60	Y60	Z60	X61	Y61	Z61	

343	1.71	-264.9863281250001	1719.57861328125	-1098.18310546875	-420.3017578125001	1673.7470703125	-1163.879760742188	-417.6284484863282	1661.898559570313	-1019.045166015625	-474.7863769531251	1490.174438476563	-1091.545654296875	-452.3572387695314	1207.843139648438	-1075.151489257813	-330.4665222167969	1478.620239257813	-1097.19580078125	-391.3804321289064	1508.720825195313	-1242.614624023438	-227.4751892089844	1441.847045898438	-1371.5771484375	-199.1006774902344	1476.4541015625	-1346.109130859375	-158.3480529785157	1448.231323242188	-1379.3017578125	-96.43653106689456	1449.791381835938	-1380.448364257813	-87.75535583496095	1376.333374023438	-1355.041137695313	198.6219635009766	1456.742553710938	-1347.482421875	261.3554077148438	1472.869995117188	-1257.24609375	-384.0848693847657	1506.6748046875	-953.6591796875002	-232.8192596435547	1473.899536132813	-826.2420043945315	-195.6039123535157	1484.943115234375	-856.0635375976565	-165.8028259277344	1468.808471679688	-805.3628540039065	-93.4529266357422	1466.354370117188	-791.1953125000002	-87.62916564941408	1388.357543945313	-807.6970214843752	186.1494903564453	1455.595336914063	-860.2788085937502	193.9891662597657	1474.52587890625	-792.6168212890627	267.5658874511719	1487.230224609375	-864.4204101562502	-252.1902770996094	1027.189575195313	-1154.20703125	-299.6099243164063	1064.229858398438	-911.6318969726565	-445.6085815429689	1062.650024414063	-1060.089233398438	-450.2364196777345	1029.681884765625	-1085.293579101563	-458.3132934570314	1034.57666015625	-1028.998046875	-221.493148803711	706.0430297851564	-1188.152587890625	-176.8944244384766	634.1589965820314	-1174.992065429688	-134.2378234863282	648.5460815429689	-1151.334350585938	-197.1528625488282	580.5865478515626	-1157.749389648438	-187.3923797607422	522.0788574218751	-1144.490234375	-188.0116119384766	523.7829589843751	-1027.441772460938	-196.9036560058594	338.6728515625001	-1054.567260742188	-244.6477966308594	302.0311584472657	-1119.567749023438	-211.721908569336	290.6026306152344	-1087.0419921875	-248.2232513427735	222.2335357666016	-1053.02880859375	-361.3941040039063	113.4983978271485	-1070.975830078125	-325.2118225097657	126.2890625	-998.0638427734377	-416.6624145507814	93.36129760742189	-1015.482727050781	-215.6173553466797	43.45616531372071	-1015.456298828125	-208.1066436767579	47.86114501953126	-1066.157836914063	-255.756332397461	35.84871673583985	-1110.268432617188	-223.6881256103516	821.546813964844	-834.6232910156252	-160.637939453125	798.381774902344	-832.543395996094	-135.2980499267578	818.5909423828127	-840.691345214844	-137.9951171875	715.6402587890626	-843.6916503906252	-45.02085113525391	615.0829467773439	-846.4931640625002	-44.75663375854493	606.3669433593751	-966.8040771484377	96.32292938232425	498.3259887695314	-862.8504028320315	81.80256652832033	389.9103088378907	-819.9079589843752	117.2761917114258	419.5221557617189	-830.7736816406252	157.0495300292969	384.7220153808595	-856.7380981445315	179.7602691650391	249.0741271972657	-818.0230712890627	201.9762268066407	271.1284790039063	-898.4335937500002	169.3332672119141	171.3556365966797	-879.2612304687502	337.5773925781251	308.2423400878907	-866.9168701171877	329.7383422851563	313.2362365722657	-820.3862915039065	309.1342468261719	271.2987060546876	-776.116882324219	188.4533386230469	1441.1796875	-1277.53857421875	
344	1.715	-265.0208129882813	1719.101928710938	-1098.454956054688	-420.4783630371095	1672.696655273438	-1163.932495117188	-417.4771728515626	1661.20361328125	-1019.209655761719	-474.9560546875001	1489.548950195313	-1091.575927734375	-452.8937072753907	1207.142578125	-1075.15087890625	-330.6200866699219	1477.778564453125	-1097.276245117188	-391.6214904785157	1508.020385742188	-1242.608154296875	-227.5982513427735	1441.238647460938	-1371.539916992188	-199.2306671142579	1475.763916015625	-1346.01171875	-158.4702911376953	1447.565551757813	-1379.577758789063	-96.25061035156253	1448.904052734375	-1380.822387695313	-87.79097747802736	1375.766967773438	-1355.205322265625	198.4901428222657	1456.220947265625	-1347.602416992188	261.3959350585938	1472.1943359375	-1257.450439453125	-384.0627746582032	1506.049926757813	-953.5935058593752	-232.9054107666016	1473.134887695313	-826.4371337890627	-195.306625366211	1484.3623046875	-855.9368896484377	-165.988525390625	1468.422485351563	-805.593200683594	-93.55238342285158	1465.792724609375	-791.3059082031252	-87.53587341308595	1387.794921875	-807.8266601562502	186.0228118896485	1455.073486328125	-860.305603027344	193.9795989990235	1473.914672851563	-792.6948242187502	267.4063720703126	1486.744140625	-864.410339355469	-252.6727142333985	1026.200805664063	-1154.353149414063	-300.1134033203126	1063.588256835938	-911.7257080078127	-446.1706848144532	1062.0048828125	-1060.089233398438	-450.4063110351564	1029.053466796875	-1085.19677734375	-458.7147216796876	1033.874267578125	-1029.033081054688	-221.0535278320313	705.6182250976564	-1188.144287109375	-176.134017944336	633.9025878906251	-1175.088256835938	-133.9971466064453	648.5438842773439	-1151.427612304688	-196.4866485595704	580.0940551757814	-1157.760864257813	-186.682357788086	521.6912231445314	-1144.502197265625	-187.4790191650391	523.4621582031251	-1027.458862304688	-196.5287475585938	338.1751098632813	-1054.440795898438	-244.2149047851563	301.6860656738282	-1119.491821289063	-211.3557739257813	290.2698669433594	-1086.929321289063	-247.8848724365235	221.9752197265626	-1052.8134765625	-361.2982177734376	113.446647644043	-1070.96630859375	-325.1772766113282	126.2853240966797	-997.940612792969	-416.6449584960939	93.34432983398439	-1015.507690429688	-215.5850524902344	43.43521118164063	-1015.421569824219	-208.1487426757813	47.85330963134766	-1066.124633789063	-255.7536773681641	35.87784957885743	-1110.241455078125	-223.7590942382813	820.8280029296877	-834.6972656250002	-160.6953887939453	797.9026489257815	-832.6639404296877	-135.52490234375	818.069519042969	-840.598327636719	-138.0715637207032	714.9929199218751	-843.7183837890627	-44.86878204345704	614.7310180664064	-846.4725341796877	-44.58734130859376	606.0334472656251	-966.8625488281252	96.603874206543	498.0252685546876	-862.9699707031252	82.02721405029298	389.9252014160157	-820.173034667969	117.4996948242188	419.6289367675782	-831.1258544921877	157.4922027587891	384.6119384765626	-856.7646484375002	180.3318328857422	249.0542907714844	-818.062438964844	202.438461303711	271.0490417480469	-898.4406738281252	170.4440155029297	170.5985717773438	-880.1551513671877	338.0201721191407	308.2928466796876	-866.9131469726565	330.1286621093751	313.3688659667969	-820.3785400390627	309.6097412109376	271.3684692382813	-776.0389404296877	188.3965148925782	1440.688354492188	-1277.640258789063	
345	1.72	-265.0745849609376	1718.18603515625	-1098.423706054688	-420.5142517089845	1671.920776367188	-1163.936401367188	-417.6126708984376	1660.239135742188	-1019.172973632813	-475.0162353515626	1488.856689453125	-1091.531372070313	-453.2533569335939	1206.448486328125	-1075.109985351563	-330.9007873535157	1476.95166015625	-1097.239990234375	-391.6392517089845	1507.166137695313	-1242.583129882813	-227.6913757324219	1440.581420898438	-1371.6435546875	-199.3242187500001	1475.0732421875	-1346.06689453125	-158.5355224609375	1446.942626953125	-1379.512451171875	-96.85798645019534	1448.551635742188	-1380.898681640625	-87.86278533935548	1375.2216796875	-1355.249389648438	198.3171691894532	1455.675048828125	-1347.733764648438	261.2760314941407	1471.758544921875	-1257.543090820313	-384.2760314941407	1505.383911132813	-953.7290649414065	-232.9582672119141	1472.53369140625	-826.5476684570315	-195.4431152343751	1483.661743164063	-856.098815917969	-166.0998992919922	1467.737182617188	-805.6489868164065	-93.64890289306642	1465.275390625	-791.3621826171877	-87.69669342041017	1387.216064453125	-807.8916625976565	185.8739776611328	1454.43603515625	-860.3615722656252	193.9148559570313	1473.280395507813	-792.724304199219	267.3808898925782	1486.664184570313	-864.8137817382815	-253.0814056396485	1025.541015625	-1154.29345703125	-300.6602172851563	1062.921020507813	-911.8056640625002	-446.6033325195314	1061.4375	-1060.163452148438	-450.7739257812501	1028.235595703125	-1085.306762695313	-459.1326293945314	1033.023193359375	-1029.167236328125	-220.5625610351563	705.1580200195314	-1188.20361328125	-175.63330078125	633.5368041992189	-1175.1162109375	-133.5124053955078	648.4240112304689	-1151.37353515625	-195.7453765869141	579.6656494140626	-1157.766723632813	-186.0100555419922	521.3073120117189	-1144.479736328125	-186.8209381103516	523.1019287109376	-1027.461181640625	-196.1933135986329	337.7790527343751	-1054.36572265625	-243.9691619873047	301.4807128906251	-1119.464965820313	-211.0202636718751	290.0043945312501	-1087.032592773438	-247.6437225341797	221.8381652832032	-1052.740112304688	-361.1429138183594	113.4115829467774	-1070.923828125	-325.1768798828126	126.2263946533203	-997.9089355468752	-416.6078491210939	93.32265472412111	-1015.530212402344	-215.6222381591797	43.42186355590821	-1015.408752441406	-208.1203613281251	47.87212753295899	-1066.105224609375	-255.7591094970704	35.87298583984376	-1110.237426757813	-223.8792724609376	820.274353027344	-834.7125244140627	-160.9696044921875	797.3570556640627	-832.5684814453127	-135.873519897461	817.570983886719	-840.5835571289065	-138.1343536376953	714.6605224609376	-843.8439941406252	-44.73009872436524	614.4013671875001	-846.620300292969	-44.47655105590821	605.6892700195314	-966.8289184570315	96.91753387451175	497.8848876953126	-863.0332641601565	82.28923797607423	389.7374267578126	-820.1328125000002	117.8026580810547	419.3960571289064	-831.1315917968752	157.905029296875	384.5765686035157	-856.6630859375002	180.8713836669922	249.000228881836	-818.0762939453127	202.8282318115235	270.9797973632813	-898.4700927734377	171.0035552978516	170.4776763916016	-880.180114746094	338.4508056640626	308.3701477050782	-866.898620605469	330.5519409179688	313.3831481933594	-820.372253417969	310.0026245117188	271.4052124023438	-776.0818481445315	188.3163299560547	1440.103637695313	-1277.775634765625	
346	1.725	-264.9702148437501	1717.340698242188	-1098.398803710938	-420.4319458007814	1671.593872070313	-1164.006469726563	-417.6368408203126	1659.64892578125	-1019.168884277344	-475.1631164550782	1488.223510742188	-1091.615844726563	-453.6044006347657	1205.810546875	-1075.168823242188	-330.9022216796876	1476.26171875	-1097.368774414063	-391.684539794922	1506.500610351563	-1242.662231445313	-227.8632354736329	1439.978393554688	-1371.696044921875	-199.4588012695313	1474.536254882813	-1346.014282226563	-158.5848999023438	1446.199096679688	-1379.587646484375	-96.80664062500003	1448.213500976563	-1380.94482421875	-87.96459197998048	1374.649291992188	-1355.248046875	198.0631408691407	1455.204711914063	-1347.898193359375	261.1359558105469	1471.195556640625	-1257.64892578125	-384.3477783203126	1504.7060546875	-953.8037109375002	-233.0264892578126	1471.74658203125	-826.958679199219	-195.4090270996094	1483.107299804688	-856.1887817382815	-166.1479034423828	1467.133544921875	-805.6812133789065	-93.67373657226564	1464.71923828125	-791.4949340820315	-87.87722778320314	1386.662475585938	-807.8479614257815	185.8091735839844	1453.84326171875	-860.4201660156252	193.8221588134766	1472.697387695313	-792.8172607421877	267.3662414550782	1486.085327148438	-864.7895507812502	-253.4821166992188	1024.844848632813	-1154.209106445313	-300.9067687988282	1062.060913085938	-911.7420654296877	-447.0809326171876	1060.563842773438	-1060.177856445313	-451.0185852050782	1027.153564453125	-1085.468505859375	-459.3786621093751	1032.13720703125	-1029.16748046875	-220.0107727050782	705.0400390625001	-1188.085327148438	-175.1168975830078	633.0131835937501	-1174.94091796875	-132.903076171875	648.0256347656251	-1151.405883789063	-195.0378112792969	579.1232299804689	-1157.780883789063	-185.5592651367188	520.4631958007814	-1144.576049804688	-186.2478485107422	522.7025756835939	-1027.573608398438	-195.7736968994141	337.4286193847657	-1054.453247070313	-243.6188964843751	301.2101745605469	-1119.446655273438	-210.5415954589844	289.5452270507813	-1086.993530273438	-247.4133758544922	221.6339569091797	-1052.747924804688	-361.0090942382813	113.3553924560547	-1070.877685546875	-325.2280883789063	126.2343521118164	-997.861755371094	-416.7047424316407	93.28041839599611	-1015.471496582031	-215.5904235839844	43.4126091003418	-1015.403259277344	-208.1216125488282	47.91392898559571	-1066.08447265625	-255.7440795898438	35.90856933593751	-1110.267944335938	-224.0463562011719	819.6730957031252	-834.795837402344	-161.2214813232422	796.687927246094	-832.5546875000002	-136.0919799804688	817.068542480469	-840.5227661132815	-138.1014556884766	714.2106323242189	-843.7568359375002	-44.61203384399415	614.1077880859376	-846.6638793945315	-44.35541534423829	605.4640502929689	-966.8733520507815	97.1340255737305	497.7241210937501	-863.0455322265627	82.54143524169923	389.5577087402345	-820.088073730469	118.1495208740235	419.2300415039064	-831.2124633789065	158.2892456054688	384.374481201172	-856.7156982421877	181.4698486328125	248.9396057128907	-818.0430908203127	203.2696533203126	270.8089599609376	-898.3862304687502	171.5321807861328	170.4259185791016	-880.0656738281252	338.7817077636719	308.3929138183594	-866.8702392578127	330.9136657714844	313.4934387207032	-820.4721679687502	310.4799499511719	271.3895568847657	-776.112243652344	188.2700500488282	1439.214599609375	-1277.8427734375	
